<?xml version="1.0" encoding="UTF-8" standalone="no"?>
<!--

    Copyright (c) 2015-2018 Red Hat, Inc.
    This program and the accompanying materials are made
    available under the terms of the Eclipse Public License 2.0
    which is available at https://www.eclipse.org/legal/epl-2.0/

    SPDX-License-Identifier: EPL-2.0

    Contributors:
      Red Hat, Inc. - initial API and implementation

-->
<svg xmlns="http://www.w3.org/2000/svg" viewBox="0 0 243.36 157.14"><defs><style>.cls-1,.cls-5{fill:#fff;}.cls-2{fill:#f04e22;}.cls-3{fill:#2a93d1;}.cls-4{fill:#4c8e41;}.cls-5{stroke:#fff;stroke-miterlimit:10;}.cls-6{fill:#939598;}</style></defs><title>자산 2</title><g id="레이어_2" data-name="레이어 2"><g id="Layer_1" data-name="Layer 1"><polygon class="cls-1" points="148.52 76.32 145.96 91.03 90.5 91.03 80.91 35.88 96.56 35.88 96.56 28.13 71.75 28.13 84.01 98.77 152.44 98.77 156.34 76.32 148.52 76.32"/><path class="cls-2" d="M170.16,7.83a7.05,7.05,0,0,0-8.06,11.39l-9,18a8.75,8.75,0,0,1,2,.63,7.65,7.65,0,0,1,1.68,1.25l9-18a7.06,7.06,0,0,0,4.35-13.27Z"/><path class="cls-3" d="M147.7,37.27,130.91,11.74a7.06,7.06,0,1,0-3.55,2.16L144,39.19A10.14,10.14,0,0,1,147.7,37.27Z"/><path class="cls-4" d="M141,43.48l-16-2.07a7.07,7.07,0,1,0-.66,4.12l16.2,2.1A10,10,0,0,1,141,43.48Z"/><path class="cls-5" d="M144.28,54.8a10.06,10.06,0,0,1-2.7-3.26L111.9,68.4A7.06,7.06,0,1,0,114,72Z"/><path class="cls-6" d="M144.27,43.6a7.07,7.07,0,1,1,3.13,9.51A7.08,7.08,0,0,1,144.27,43.6Z"/><path class="cls-5" d="M18.8,116.51A14.6,14.6,0,0,0,10,114H.5v32.13H6V134.77H9.5a17.4,17.4,0,0,0,6.34-1.11,10.27,10.27,0,0,0,4.65-3.5,9.73,9.73,0,0,0,1.75-5.9C22.24,120.81,21.08,118.2,18.8,116.51ZM9.69,130H6V118.86H9.91a8.37,8.37,0,0,1,5,1.27c1.06.81,1.59,2.26,1.59,4.29a5.15,5.15,0,0,1-1.89,4.17A8.07,8.07,0,0,1,9.69,130Z"/><path class="cls-5" d="M42.09,123.86a11.89,11.89,0,0,0-6.1-1.54,12.1,12.1,0,0,0-6.17,1.54,10.42,10.42,0,0,0-4.09,4.33,13.67,13.67,0,0,0-1.44,6.33,14,14,0,0,0,1.39,6.36,10.28,10.28,0,0,0,4,4.34,11.88,11.88,0,0,0,6.1,1.53A12.22,12.22,0,0,0,42,145.22a10.43,10.43,0,0,0,4.12-4.33,14.89,14.89,0,0,0,0-12.69A10.4,10.4,0,0,0,42.09,123.86Zm-6.24,18a5.16,5.16,0,0,1-4.34-2,8.58,8.58,0,0,1-1.61-5.41,8.38,8.38,0,0,1,1.72-5.26,5.29,5.29,0,0,1,4.37-2,5.15,5.15,0,0,1,4.33,2,8.58,8.58,0,0,1,1.61,5.41,8.24,8.24,0,0,1-1.72,5.26A5.26,5.26,0,0,1,35.85,141.88Z"/><path class="cls-5" d="M66.88,123.86a11.93,11.93,0,0,0-6.14-1.54,8.92,8.92,0,0,0-2.81.56,13.16,13.16,0,0,0-2.55,1.2l-.82-1.16H51.23v33.72h5.52V145.82a11.28,11.28,0,0,0,1.68.6,8.8,8.8,0,0,0,2.26.33,12,12,0,0,0,6.07-1.5,10.48,10.48,0,0,0,4.1-4.27,13.37,13.37,0,0,0,1.43-6.28,14.44,14.44,0,0,0-1.38-6.48A10.3,10.3,0,0,0,66.88,123.86Zm-6.14,18a6.67,6.67,0,0,1-4-1.22V128.5a6.23,6.23,0,0,1,4-1.3,5.12,5.12,0,0,1,4.35,2,8.89,8.89,0,0,1,1.6,5.54,8.07,8.07,0,0,1-1.61,5.18A5.21,5.21,0,0,1,60.74,141.88Z"/><path class="cls-5" d="M86,127.2a10.76,10.76,0,0,1,2.87.34A31.89,31.89,0,0,1,92,128.66l.52.22,1.68-4.06-.39-.26A13.14,13.14,0,0,0,90,123a15.77,15.77,0,0,0-3.93-.64,12.23,12.23,0,0,0-6.19,1.54,10.41,10.41,0,0,0-4.11,4.33,13.67,13.67,0,0,0-1.44,6.33,13.92,13.92,0,0,0,1.41,6.36,10.36,10.36,0,0,0,4,4.34,11.88,11.88,0,0,0,6.1,1.53,16.29,16.29,0,0,0,4-.61,12.37,12.37,0,0,0,3.85-1.58l.39-.26-1.74-4.13-.54.26a15.5,15.5,0,0,1-2.86,1.1,11.79,11.79,0,0,1-3.09.35,5.16,5.16,0,0,1-4.34-2A8.58,8.58,0,0,1,80,134.48a8.38,8.38,0,0,1,1.72-5.26A5.29,5.29,0,0,1,86,127.2Z"/><path class="cls-5" d="M113.74,123.86a11.86,11.86,0,0,0-6.1-1.54,12.12,12.12,0,0,0-6.17,1.54,10.55,10.55,0,0,0-4.09,4.33A13.66,13.66,0,0,0,96,134.52a14.17,14.17,0,0,0,1.38,6.36,10.31,10.31,0,0,0,4,4.34,11.88,11.88,0,0,0,6.1,1.53,12.22,12.22,0,0,0,6.19-1.53,10.49,10.49,0,0,0,4.12-4.33,13.66,13.66,0,0,0,1.43-6.33,13.92,13.92,0,0,0-1.41-6.36A10.36,10.36,0,0,0,113.74,123.86Zm-6.23,18a5.16,5.16,0,0,1-4.34-2,8.58,8.58,0,0,1-1.61-5.41,8.26,8.26,0,0,1,1.72-5.26,5.27,5.27,0,0,1,4.36-2,5.16,5.16,0,0,1,4.34,2,8.58,8.58,0,0,1,1.61,5.41,8.36,8.36,0,0,1-1.72,5.26A5.28,5.28,0,0,1,107.51,141.88Z"/><path class="cls-5" d="M134.45,122.92a8.58,8.58,0,0,0-4,1.21,21.91,21.91,0,0,0-3.15,2L126,122.92h-3.41v23.24h5.51V131.21a17.55,17.55,0,0,1,3.62-2.55,8,8,0,0,1,3.65-1.1h.75l-1.27-4.64Z"/><path class="cls-5" d="M151.31,122.19a11.24,11.24,0,0,0-4.66,1.07,16.59,16.59,0,0,0-3.45,2.13l-.66-2.47h-4.06v23.24H144V130.27A19.13,19.13,0,0,1,147.3,128a6.59,6.59,0,0,1,3.1-.92,2.59,2.59,0,0,1,2.37,1,6.43,6.43,0,0,1,.71,3.37v14.74H159V131a10,10,0,0,0-1.88-6.37A6.92,6.92,0,0,0,151.31,122.19Z"/><path class="cls-5" d="M175.89,128.26c-2-.94-3.62-1.71-4.65-2.31a7.55,7.55,0,0,1-2.3-1.88,3.56,3.56,0,0,1-.74-2.27,2.79,2.79,0,0,1,1.42-2.53,7.83,7.83,0,0,1,4.12-1,11.4,11.4,0,0,1,3.23.4,20.13,20.13,0,0,1,2.95,1.18l.54.26,1.89-4.51-.47-.24a22.23,22.23,0,0,0-4-1.5,15.35,15.35,0,0,0-10.1.49,8.9,8.9,0,0,0-3.77,3.07,7.77,7.77,0,0,0-1.33,4.42,8.76,8.76,0,0,0,.94,4.17,8.89,8.89,0,0,0,2.74,3,28.39,28.39,0,0,0,4.69,2.54c1.9.83,3.42,1.57,4.5,2.18a8.37,8.37,0,0,1,2.37,1.91,3.48,3.48,0,0,1,.76,2.23,3.18,3.18,0,0,1-1.53,2.78,8.31,8.31,0,0,1-4.69,1.11,14.73,14.73,0,0,1-3.91-.57,17,17,0,0,1-3.48-1.32l-.62-.33-1.3,4.48.27.24a10.2,10.2,0,0,0,4.05,1.68,20.89,20.89,0,0,0,5,.74,16,16,0,0,0,6.23-1.09,9,9,0,0,0,4.08-3.14,8,8,0,0,0,1.43-4.68,7.78,7.78,0,0,0-2.1-5.59A20.68,20.68,0,0,0,175.89,128.26Z"/><path class="cls-5" d="M202,114h-4.75l-12.1,32.13h5.5l3.1-8.29h11.84l3.26,8.72,5.49-.81-12.2-31.39Zm1.84,19.19h-8.43l4.16-11.13Z"/><path class="cls-5" d="M234.53,132.18a9.5,9.5,0,0,0,3.58-3.06,9.37,9.37,0,0,0,1.61-5.31c0-3.29-1.17-5.78-3.48-7.4a15.06,15.06,0,0,0-8.81-2.38H218v32.13h5.52V133.77H227a23.1,23.1,0,0,0,2.56-.1l6.9,12.49h6.06Zm-11-13.32h3.9a8.77,8.77,0,0,1,5,1.19c1.08.76,1.61,2,1.61,3.93a4.34,4.34,0,0,1-1.82,3.84,9,9,0,0,1-5,1.25h-3.67Z"/></g></g></svg>
