<?xml version="1.0" encoding="UTF-8" standalone="no"?>
<!--

    Copyright (c) 2015-2018 Red Hat, Inc.
    This program and the accompanying materials are made
    available under the terms of the Eclipse Public License 2.0
    which is available at https://www.eclipse.org/legal/epl-2.0/

    SPDX-License-Identifier: EPL-2.0

    Contributors:
      Red Hat, Inc. - initial API and implementation

-->

<svg xmlns="http://www.w3.org/2000/svg" viewBox="0 0 1920 400"><defs><style>.cls-1{fill:#070707;}.cls-2{fill:#090909;}.cls-3{fill:#939598;}.cls-4{fill:#ef4e24;}.cls-5{fill:#2a93d0;}.cls-6{fill:#37af1e;}</style></defs><title>popcornsar-logo대지 1</title><g id="레이어_1" data-name="레이어 1"><path class="cls-1" d="M1872.36,248.57s2.68-2.1,4.94-3.85c23.14-18,28.08-40.67,21.67-66.13s-26.17-36.67-50.2-41c-23.83-4.3-81-1.53-81-1.53l-.16,197.5h34.61l-.47-76.21s3.36.81,14.4,0c6.89-.5,24.41-1.07,24.41-1.07l39.3,74.81H1918Zm-71.87-51.16v-30s20.26-2.35,36,0c20.75,3,29.6,12.11,29.4,30.17-.18,17.16-10.3,27.24-30.15,30-16.77,2.37-35.27-.07-35.27-.07Z"/><path class="cls-1" d="M785.5,194.06c-2.24.85-7.67,2.54-7.67,2.54l-4.48-4.36H753.13s.28,138.74.45,204.05h33.71V332.53c50.53,12.81,87.29-10.83,94.06-58.88C889.91,212.84,841.72,172.72,785.5,194.06ZM845.06,278c-5.63,21.94-22,31.4-41.78,27.65-5.84-1.91-11.78-4.21-16.17-9.18l.18-67.67c8.41-10.86,18-12.15,32.12-10.18C840.11,223.14,852.05,250.79,845.06,278Z"/><path class="cls-1" d="M289.52,294.38s-4.1,32.21-5.85,43.8c-1.14,7.56-4.12,10.88-12.75,10.82-62.28-.43-197.27,0-197.27,0L37.41,142.26l58.73.37v-30H2l46,266H307.52l11.18-84.26Z"/><path class="cls-1" d="M1671.42,134.79h-29.73l-69.28,187-3.47,9.24,34-.53,18.09-49.21,72.34-1.59,20,53.19,33.82-2ZM1674,252.16h-41.92s16.33-43.23,24.28-64.23c8.13,21.07,25.61,64.52,25.61,64.52Z"/><path class="cls-1" d="M523.43,138.61c-22.32-3.84-67.15-2.46-67.15-2.46H443.33V333.58H478l-.33-69.69H487s29.35-.86,43.85-4.57c24.37-6.22,45.33-27.77,45.33-59.48C576.2,170.11,554.83,144,523.43,138.61ZM518.8,231c-11.43,4.1-34.87,2.92-34.87,2.92h-6.17l0-66.45h.1l7.17-.78c33.2-3,50.76,4.42,55.24,24.33C544.57,210,536.54,224.66,518.8,231Z"/><path class="cls-1" d="M1534.85,235.27c-10.8-6.6-22.73-11.32-34-17.26-9.85-5.21-20.57-9.14-28.3-17.73-11.52-12.82-7.51-27.47,8.49-33.78,19.17-7.57,44.14-.25,59.27,8l11.5-28.1c-14-6.58-38-14.34-49.73-14-13.09-.31-22.71.78-32,3.69-32.38,10.13-47.35,41.5-34.46,71.41,7.23,16.78,21.94,24.89,37,32.58s31.17,12.68,44.64,23c7.59,5.82,13.49,13,11.24,23.42-2.37,10.93-10.91,15.58-20.82,17.73-19.69,4.28-38.38.13-56.58-7.52-2.58-1.09-7.73-2.9-7.73-2.9l-8.06,23.29-1.8,5c40.25,16.75,60,17.85,86,11.51,21.53-5.26,38.32-17.34,42.94-40.62C1567.38,267.85,1558.77,249.9,1534.85,235.27Z"/><path class="cls-1" d="M1096.2,187.41c-43,.09-71.42,29.7-71.43,74.32,0,45.6,27.53,74.82,70.53,74.82,44.26,0,72-28.93,72-75C1167.2,216.31,1139.41,187.31,1096.2,187.41Zm-10.32,117.42c-18.76-5.38-29.81-28.53-25.25-52.91,4.2-22.44,19.61-35.52,39.88-33.83,19.08,1.59,31.79,18.88,32,43.45C1132.66,292,1111.05,312.06,1085.88,304.83Z"/><path class="cls-1" d="M1337,191.56c-5.14,2.07-10,4.63-15,7.09-3.32,1.64-8.21,4.21-8.21,4.21l-6.25-11.23-23.7-.19-.45,142.1h34.72l-.73-98.1s6.69-5.34,19.7-12.2c25.22-13.3,38.08-6.31,38.44,21.78.34,26-.08,88.52-.08,88.52H1410s.35-67-.59-95.55C1407.93,194.33,1377.7,175.2,1337,191.56Z"/><path class="cls-1" d="M989.11,222c1.92.64,9.93,3.83,11.6,4.93l13.17-25.26c-17.16-10.45-35.36-13.84-49.82-14.34-49.53-1.69-84.11,44.57-69.41,99.25,15.76,58.65,82.92,60.85,119.23,34.91l-10.78-24.93c-36.9,16.75-60.54,11.88-72.81-14-7.57-16-6.39-39.37,8-53.86C952.9,214,968.59,215.23,989.11,222Z"/><path class="cls-2" d="M1239.91,194c-16,5.64-23.7,10.86-23.7,10.86l-7.2-13.59h-21.75l-.41,142.62,33.9-.06V242.72c4.65-7.2,16.36-16.86,26.07-20.75,5.14-2.05,16-2.66,23.94-2.66l-8-29.26S1248,191.2,1239.91,194Z"/><circle class="cls-3" cx="299.3" cy="181.12" r="26.73"/><path class="cls-1" d="M659.8,187.41c-43,.09-71.42,29.7-71.43,74.32,0,45.6,27.53,74.82,70.53,74.82,44.26,0,72-28.93,72-75C730.8,216.31,703,187.31,659.8,187.41ZM649.48,304.83c-18.76-5.38-29.81-28.53-25.25-52.91,4.19-22.44,19.61-35.52,39.88-33.83,19.08,1.59,31.79,18.88,31.95,43.45C696.26,292,674.64,312.06,649.48,304.83Z"/><path class="cls-4" d="M380.44,38.28a26.73,26.73,0,1,0-37.8,37.8c.16.16.35.27.52.43l-34.34,67.77.49.25a38,38,0,0,1,13.22,6.6l34.28-67.67a26.71,26.71,0,0,0,23.63-45.18Z"/><path class="cls-5" d="M287.52,144.67,225.35,47.76a26.63,26.63,0,1,0-20.22,9.42A26.42,26.42,0,0,0,212.45,56l61.91,96.5a37.85,37.85,0,0,1,11.93-7.08Z"/><path class="cls-6" d="M263.48,168.6,204,162.2a26.75,26.75,0,1,0-3.31,15.06l60.83,6.53c-.06-.9-.27-1.75-.27-2.67A37.7,37.7,0,0,1,263.48,168.6Z"/><path d="M264.79,197.05,156.66,262a26.71,26.71,0,1,0,7.72,18.77,27.07,27.07,0,0,0-.53-5.21L274,209.4A38.15,38.15,0,0,1,264.79,197.05Z"/></g></svg>
