<?xml version="1.0" encoding="utf-8"?>
<!-- Generator: Adobe Illustrator 22.1.0, SVG Export Plug-In . SVG Version: 6.00 Build 0)  -->
<svg version="1.1" xmlns="http://www.w3.org/2000/svg" xmlns:xlink="http://www.w3.org/1999/xlink" x="0px" y="0px"
	 viewBox="0 0 215 56" style="enable-background:new 0 0 215 56;" xml:space="preserve">
<style type="text/css">
	.st0{display:none;}
	.st1{display:inline;}
	.st2{fill:#FFFFFF;}
	.st3{opacity:0.5;}
	.st4{fill:#1E1E1E;}
	.st5{fill:#2A93D0;}
	.st6{fill:#37AF1E;}
	.st7{opacity:0.4;}
	.st8{fill:#EF4E24;}
	.st9{fill:#939598;}
	.st10{fill:none;}
	.st11{opacity:0.8;fill:#FFFFFF;}
	.st12{opacity:0.2;}
	.st13{opacity:0.3;}
	.st14{opacity:0.7;}
	.st15{opacity:0.9;}
</style>
<g id="레이어_2" class="st0">
</g>
<g id="레이어_1">
	<g>
		<path class="st5" d="M23.1,46.3c-0.6-0.9-1.6-1.4-2.7-1.4c-0.7,0-1.3,0.2-1.9,0.6c-0.5,0.3-0.8,0.8-1.1,1.3
			c-0.7,0.1-1.4,0.2-2.1,0.2c-3.4,0-6.6-1.7-8.6-4.5c-1.9-2.8-2.4-6.2-1.4-9.4c0.3-0.8-0.1-1.6-0.8-2l0,0c-0.4-0.3-0.9-0.3-1.4-0.1
			c-0.5,0.2-0.9,0.6-1,1.1C0.8,36.2,1.5,40.8,4,44.5c2.6,3.7,6.9,5.9,11.4,5.9c0.8,0,1.6-0.1,2.5-0.2c0.6,0.8,1.5,1.2,2.5,1.2
			c0.7,0,1.3-0.2,1.9-0.6c0.7-0.5,1.2-1.2,1.3-2.1C23.8,47.9,23.6,47,23.1,46.3z"/>
		<path class="st6" d="M42.8,43.1c-0.6-0.9-1.6-1.4-2.7-1.4c-0.7,0-1.4,0.2-1.9,0.6c-1.4,1-1.7,3-0.7,4.5l0,0.1l-0.1,0.2
			c-0.6,1.1-1.5,2.1-2.6,2.8c-1.5,1-3.2,1.6-4.9,1.6c-1.2,0-2.3-0.2-3.4-0.7c-0.7-0.3-1.4-0.1-1.9,0.4c0,0,0,0,0,0
			c-0.4,0.4-0.5,1-0.4,1.5c0.1,0.5,0.5,0.9,1,1.2c1.5,0.6,3.1,1,4.7,1h0c2.5,0,4.9-0.8,6.9-2.2c1.6-1.1,3-2.7,3.8-4.4l0.1-0.1l0.2,0
			c0.4-0.1,0.8-0.3,1.1-0.5c0.7-0.5,1.2-1.2,1.3-2.1C43.4,44.7,43.3,43.8,42.8,43.1z"/>
		<path d="M52.5,29.4l0.1-0.2c0.6-1.1,0.6-2.5-0.1-3.5c-0.6-0.9-1.6-1.4-2.7-1.4c-0.7,0-1.3,0.2-1.9,0.6c-0.8,0.5-1.3,1.4-1.4,2.3
			c-0.1,0.9,0.2,1.8,0.8,2.5c0.5,0.6,1.2,0.9,2,1.1l0.1,0l0.1,0.2c1.7,3.8,0.5,8.3-2.9,10.7c-0.2,0.1-0.4,0.3-0.7,0.4
			c-0.6,0.3-0.9,1-0.7,1.7c0,0.1,0,0.1,0,0.2c0.1,0.5,0.4,0.9,0.8,1.2c0.2,0.1,0.5,0.2,0.7,0.2c0.3,0,0.5-0.1,0.8-0.2
			c0.9-0.5,1.7-1.1,2.5-1.8C53.7,39.8,54.7,34.2,52.5,29.4z"/>
		<path class="st9" d="M51.9,10.9c-2.6-3.7-6.9-6-11.4-6c-1.4,0-2.7,0.2-4.1,0.6l-0.2,0.1l-0.1-0.1c-0.5-0.4-1-0.7-1.6-0.8
			c-0.9-0.2-1.8,0-2.5,0.5c-1.2,0.8-1.7,2.4-1.2,3.7c0.5,1.3,1.7,2.2,3.1,2.2c0.8,0,1.5-0.3,2.1-0.8c0.4-0.3,0.7-0.8,0.9-1.4l0-0.1
			l0.2-0.1c1.1-0.3,2.1-0.5,3.3-0.5c3.4,0,6.6,1.7,8.6,4.5c1.6,2.3,2.2,5.1,1.7,7.9c-0.1,0.8,0.3,1.6,1,1.9l0,0v0
			c0.2,0.1,0.4,0.1,0.6,0.1c0.3,0,0.5-0.1,0.8-0.2c0.5-0.2,0.8-0.7,0.9-1.2C54.9,17.8,54.1,14,51.9,10.9z"/>
	</g>
	<path class="st8" d="M29.5,4c-0.2-0.4-0.5-0.8-0.9-0.9c-2.1-0.8-4.2-1.2-6.4-1.2c-7.2,0-11.7,4.4-11.7,4.4
		C5.6,10.7,3.6,17.6,5.2,24l0,0.2l-0.1,0.1c-0.9,0.9-1.2,2.1-0.9,3.2c0.4,1.4,1.7,2.4,3.1,2.4c0.7,0,1.3-0.2,1.9-0.6
		c0.7-0.5,1.2-1.2,1.3-2.1s0-1.7-0.5-2.4c-0.3-0.5-0.8-0.9-1.3-1.1l-0.1-0.1l0-0.2c-1.6-5.8,0.6-12,5.5-15.5l0.1-0.1
		c2.4-1.6,5.2-2.5,8.1-2.5c1.8,0,3.5,0.3,5.1,0.9c0.8,0.3,1.6,0,2-0.8l0,0C29.6,5,29.7,4.5,29.5,4z"/>
	<g>
		<path class="st2" d="M204.9,11.1c0,0,0.2-0.2,0.5-0.4c2.1-1.6,2.6-3.7,2-6.1c-0.6-2.3-2.4-3.4-4.6-3.8c-2.2-0.4-7.4-0.1-7.4-0.1
			l0,18.1h1l1.1,0h1l0-7c0,0,0.3,0.1,1.3,0c0.6,0,2.2-0.1,2.2-0.1l3.6,6.9h3.5L204.9,11.1z M198.3,6.4V3.6c0,0,1.9-0.2,3.3,0
			c1.9,0.3,2.7,1.1,2.7,2.8c0,1.6-0.9,2.5-2.8,2.8c-1.5,0.2-3.2,0-3.2,0V6.4z"/>
		<path class="st2" d="M98.6,6.1c-0.2,0.1-0.7,0.2-0.7,0.2l-0.4-0.4h-1.9c0,0,0,12.7,0,18.7c1,0,2.1,0,3.1,0c0-1.9,0-3.9,0-5.8
			c4.6,1.2,8-1,8.6-5.4C108.1,7.8,103.7,4.1,98.6,6.1z M104,13.8c-0.5,2-2,2.9-3.8,2.5c-0.5-0.2-1.1-0.4-1.5-0.8l0-6.2
			c0.8-1,1.6-1.1,2.9-0.9C103.6,8.7,104.7,11.3,104,13.8z"/>
		<path class="st2" d="M185.6,0.6h-1.2h-1.5l-6.4,17.2l-0.3,0.8l3.1,0l1.7-4.5l6.6-0.1l1.8,4.9l3.1-0.2L185.6,0.6z M185.9,11.4h-3.2
			H182c0,0,1.5-4,2.2-5.9c0.7,1.9,2.3,5.9,2.3,5.9L185.9,11.4z"/>
		<path class="st2" d="M73.6,1c-2-0.4-6.2-0.2-6.2-0.2h-1.2c0,0,0,6.4,0,9c0,2.7,0,9.1,0,9.1h0.9h1.3h1l0-6.4h0.9c0,0,2.7-0.1,4-0.4
			c2.2-0.6,4.2-2.5,4.2-5.5C78.5,3.9,76.5,1.5,73.6,1z M73.2,9.5c-1,0.4-3.2,0.3-3.2,0.3h-0.6l0-6.1h0l0.7-0.1
			c3-0.3,4.7,0.4,5.1,2.2C75.5,7.5,74.8,8.9,73.2,9.5z"/>
		<path class="st2" d="M172.3,9.9c-1-0.6-2.1-1-3.1-1.6c-0.9-0.5-1.9-0.8-2.6-1.6c-1.1-1.2-0.7-2.5,0.8-3.1c1.8-0.7,4.1,0,5.4,0.7
			l1.1-2.6c-1.3-0.6-3.5-1.3-4.6-1.3c-1.2,0-2.1,0.1-2.9,0.3c-3,0.9-4.3,3.8-3.2,6.6c0.7,1.5,2,2.3,3.4,3c1.4,0.7,2.9,1.2,4.1,2.1
			c0.7,0.5,1.2,1.2,1,2.1c-0.2,1-1,1.4-1.9,1.6c-1.8,0.4-3.5,0-5.2-0.7c-0.2-0.1-0.7-0.3-0.7-0.3l-0.7,2.1l-0.2,0.5
			c3.7,1.5,5.5,1.6,7.9,1.1c2-0.5,3.5-1.6,3.9-3.7C175.3,12.8,174.5,11.2,172.3,9.9z"/>
		<path class="st2" d="M129.5,5.5c-3.9,0-6.6,2.7-6.6,6.8c0,4.2,2.5,6.9,6.5,6.9c4.1,0,6.6-2.7,6.6-6.9
			C136.1,8.1,133.5,5.5,129.5,5.5z M128.6,16.2c-1.7-0.5-2.7-2.6-2.3-4.9c0.4-2.1,1.8-3.3,3.7-3.1c1.8,0.1,2.9,1.7,2.9,4
			C132.9,15.1,130.9,16.9,128.6,16.2z"/>
		<path class="st2" d="M153.3,5.8c-0.5,0.2-0.9,0.4-1.4,0.7c-0.3,0.1-0.8,0.4-0.8,0.4l-0.6-1l-2.2,0l0,13l3.2,0l-0.1-9
			c0,0,0.6-0.5,1.8-1.1c2.3-1.2,3.5-0.6,3.5,2c0,2.4,0,8.1,0,8.1h0.9h1.4h0.8c0,0,0-6.1-0.1-8.8C159.8,6.1,157,4.3,153.3,5.8z"/>
		<path class="st2" d="M118.9,8.6c0.2,0.1,0.9,0.4,1.1,0.5l1.2-2.3c-1.6-1-3.2-1.3-4.6-1.3c-4.5-0.2-7.7,4.1-6.4,9.1
			c1.4,5.4,7.6,5.6,10.9,3.2l-1-2.3c-3.4,1.5-5.6,1.1-6.7-1.3c-0.7-1.5-0.6-3.6,0.7-4.9C115.6,7.9,117,8,118.9,8.6z"/>
		<path class="st2" d="M143.6,6.1c-1.5,0.5-2.2,1-2.2,1l-0.7-1.2h-2l0,13.1l3.1,0v-8.4c0.4-0.7,1.5-1.5,2.4-1.9
			c0.5-0.2,1.5-0.2,2.2-0.2l-0.7-2.7C145.7,5.7,144.3,5.8,143.6,6.1z"/>
		<path class="st2" d="M87,5.5c-3.9,0-6.6,2.7-6.6,6.8c0,4.2,2.5,6.9,6.5,6.9c4.1,0,6.6-2.7,6.6-6.9C93.5,8.1,91,5.5,87,5.5z
			 M86.1,16.2c-1.7-0.5-2.7-2.6-2.3-4.9c0.4-2.1,1.8-3.3,3.7-3.1c1.8,0.1,2.9,1.7,2.9,4C90.4,15.1,88.4,16.9,86.1,16.2z"/>
		<g>
			<path class="st2" d="M105.1,29.6H89.3c-1.3,0-2.3,1-2.3,2.3s1,2.3,2.3,2.3h5.3v18.1c0,1.4,1.2,2.6,2.6,2.6c1.4,0,2.6-1.2,2.6-2.6
				V34.3h5.3c1.3,0,2.3-1,2.3-2.3S106.4,29.6,105.1,29.6z"/>
			<path class="st2" d="M175.4,29.6c-1.4,0-2.6,1.2-2.6,2.6v20.2c0,1.4,1.2,2.6,2.6,2.6c1.4,0,2.6-1.2,2.6-2.6V32.2
				C178,30.8,176.8,29.6,175.4,29.6z"/>
			<path class="st2" d="M132.4,29.6c-1.4,0-2.6,1.1-2.6,2.5V45c0,3.1-2.6,5.7-5.9,5.7c-3.3,0-5.9-2.5-5.9-5.7V32.1
				c0-1.4-1.2-2.5-2.6-2.5c-1.4,0-2.6,1.1-2.6,2.5v12.8c0,5.9,5,10.6,11.1,10.6c6.1,0,11.1-4.7,11.1-10.6V32.1
				C134.9,30.7,133.8,29.6,132.4,29.6z"/>
			<path class="st2" d="M152.3,29.6h-4.7c-2.9,0-5.2,2.3-5.2,5.2v15.1c0,2.9,2.3,5.2,5.2,5.2h4.7c7.4,0,12.6-5.5,12.6-12.6
				C164.9,35.3,159.6,29.6,152.3,29.6z M151.8,50.4h-4.2V34.2h4.2c4.9,0,7.9,3.5,7.9,8.2S156.7,50.4,151.8,50.4z"/>
			<path class="st2" d="M197.8,29c-6.4,0-12,5.9-12,13.3s5.6,13.3,12,13.3c6.4,0,12-5.9,12-13.3S204.1,29,197.8,29z M197.8,51
				c-4,0-6.9-3.9-6.9-8.7s2.8-8.7,6.9-8.7c4,0,6.9,3.9,6.9,8.7S201.8,51,197.8,51z"/>
			<path class="st2" d="M72.2,39c-3.1-1.2-2.3-4.3,0-5.3c1.6-0.7,3.9-0.5,5.7,0.2c0.9,0.3,1.9,0.1,2.5-0.7l0-0.1
				c0.9-1.1,0.4-2.7-0.9-3.2c-1.3-0.5-3-0.9-4.8-0.9c-6,0-8.6,3-9.4,5.7c-0.8,3,0.6,6.2,4.1,7.8c2.1,1,5,1.7,6.6,2.5
				c3.3,1.7,1.9,6-2.8,6c-1.6,0-2.9-0.2-4.6-0.9c-1.1-0.4-2.4,0-2.9,1.1c-0.5,1.1,0,2.4,1.2,2.9c2.2,0.8,4.8,1.3,6.2,1.3
				c7.3,0,10.3-4.9,9.6-8.8C82,41.5,74.8,40,72.2,39z"/>
		</g>
	</g>
</g>
</svg>
