<?xml version="1.0" encoding="utf-8"?>
<!-- Generator: Adobe Illustrator 22.1.0, SVG Export Plug-In . SVG Version: 6.00 Build 0)  -->
<svg version="1.1" xmlns="http://www.w3.org/2000/svg" xmlns:xlink="http://www.w3.org/1999/xlink" x="0px" y="0px"
	 viewBox="0 0 215 56" style="enable-background:new 0 0 215 56;" xml:space="preserve">
<style type="text/css">
	.st0{display:none;}
	.st1{display:inline;}
	.st2{fill:#1E1E1E;}
	.st3{fill:#FFFFFF;}
	.st4{fill:#2A93D0;}
	.st5{fill:#37AF1E;}
	.st6{fill:#939598;}
	.st7{opacity:0.5;}
	.st8{opacity:0.4;}
	.st9{fill:#EF4E24;}
	.st10{fill:none;}
</style>
<g id="레이어_2" class="st0">
	<rect x="-4" y="-4" class="st1" width="223" height="65"/>
</g>
<g id="레이어_1">
	<g>
		<g>
			<path class="st3" d="M107.1,27.5l-14.5-0.1c-1.2,0-2.1,0.9-2.1,2.1c0,1.2,0.9,2.1,2.1,2.1l4.9,0l-0.1,16.6c0,1.3,1.1,2.4,2.4,2.4
				c1.3,0,2.4-1.1,2.4-2.4l-0.9-16.6l5.9,0c1.2,0,2.1-0.9,2.1-2.1C109.2,28.5,108.2,27.5,107.1,27.5z"/>
			<path class="st3" d="M180.5,27.8c-1.3,0-2.4,1.1-2.4,2.4L178,48.7c0,1.3,1.1,2.4,2.4,2.4c1.3,0,2.4-1.1,2.4-2.4l0.1-18.5
				C182.8,28.8,181.8,27.8,180.5,27.8z"/>
			<path class="st3" d="M135.3,27.6c-1.3,0-2.4,1-2.4,2.3l0,11.9c0,2.9-2.4,5.2-5.4,5.2c-3,0-5.4-2.3-5.4-5.2l0-11.9
				c0-1.3-1.1-2.3-2.4-2.3c-1.3,0-2.4,1-2.4,2.3l0,11.7c0,5.4,4.5,9.7,10.1,9.8c5.6,0,10.2-4.3,10.2-9.7l0-11.7
				C137.7,28.6,136.6,27.6,135.3,27.6z"/>
			<path class="st3" d="M157.2,27.7l-4.3,0c-2.6,0-4.7,2.1-4.8,4.7l-0.1,13.8c0,2.6,2.1,4.7,4.7,4.8l4.3,0c6.8,0,11.6-5,11.6-11.5
				C168.8,32.9,164,27.7,157.2,27.7z M156.7,46.7l-3.9,0l0.1-14.8l3.9,0c4.5,0,7.3,3.2,7.3,7.5C164,43.7,161.2,46.7,156.7,46.7z"/>
			<path class="st3" d="M203,27.3c-5.8,0-11,5.4-11,12.1s5.1,12.2,10.9,12.2c5.8,0,11-5.4,11-12.1C214,32.8,208.9,27.4,203,27.3z
				 M202.9,47.5c-3.7,0-6.3-3.6-6.3-8c0-4.4,2.6-8,6.3-8c3.7,0,6.3,3.6,6.3,8C209.3,43.9,206.6,47.5,202.9,47.5z"/>
			<path class="st3" d="M71.9,36c-2.9-1.1-2.1-4,0-4.8c1.5-0.6,3.6-0.4,5.3,0.2c0.8,0.3,1.8,0.1,2.3-0.6l0-0.1
				c0.8-1,0.4-2.5-0.9-2.9c-1.2-0.4-2.7-0.8-4.4-0.8c-5.5,0-7.9,2.7-8.6,5.2c-0.7,2.7,0.5,5.7,3.7,7.2c2,0.9,4.6,1.6,6,2.3
				c3,1.6,1.7,5.5-2.6,5.5c-1.5,0-2.7-0.2-4.2-0.8c-1-0.4-2.2,0-2.6,1c-0.5,1,0,2.2,1.1,2.6c2,0.7,4.4,1.2,5.7,1.2
				c6.7,0,9.4-4.4,8.8-8C80.8,38.3,74.3,36.9,71.9,36z"/>
		</g>
		<g id="XMLID_141_">
			<path id="XMLID_166_" class="st3" d="M67.7,4.6c0.8-0.1,1.9-0.2,3.5-0.2c1.6,0,2.7,0.3,3.5,1c0.7,0.6,1.2,1.7,1.2,2.9
				c0,1.2-0.4,2.2-1.1,2.9c-0.9,0.9-2.2,1.3-3.7,1.3c-0.3,0-0.6,0-0.9-0.1l0,4.4l-2.6,0L67.7,4.6z M70.2,10.3
				c0.2,0.1,0.5,0.1,0.9,0.1c1.4,0,2.2-0.7,2.2-2c0-1.1-0.7-1.8-2-1.8c-0.5,0-0.9,0.1-1.1,0.1L70.2,10.3z"/>
			<path id="XMLID_163_" class="st3" d="M92.2,10.6c0,4.1-2.3,6.5-5.7,6.5c-3.4,0-5.4-2.8-5.4-6.3c0-3.7,2.2-6.5,5.6-6.5
				C90.3,4.4,92.2,7.2,92.2,10.6z M83.9,10.8c0,2.4,1,4.1,2.8,4.1c1.8,0,2.8-1.8,2.8-4.2c0-2.2-1-4.1-2.8-4.1
				C85,6.6,83.9,8.4,83.9,10.8z"/>
			<path id="XMLID_160_" class="st3" d="M98.5,4.8c0.8-0.1,1.9-0.2,3.5-0.2c1.6,0,2.7,0.3,3.5,1c0.7,0.6,1.2,1.7,1.2,2.9
				c0,1.2-0.4,2.2-1.1,2.9c-0.9,0.9-2.2,1.3-3.7,1.3c-0.3,0-0.6,0-0.9-0.1l0,4.4l-2.6,0L98.5,4.8z M101,10.4
				c0.2,0.1,0.5,0.1,0.9,0.1c1.4,0,2.2-0.7,2.2-2c0-1.1-0.7-1.8-2-1.8c-0.5,0-0.9,0.1-1.1,0.1L101,10.4z"/>
			<path id="XMLID_158_" class="st3" d="M121.1,16.7c-0.5,0.3-1.6,0.5-3,0.5c-4,0-6-2.7-6-6.2c0-4.2,2.8-6.6,6.3-6.5
				c1.3,0,2.4,0.3,2.8,0.6l-0.5,2.2c-0.5-0.2-1.3-0.5-2.2-0.5c-2.1,0-3.7,1.3-3.7,4.1c0,2.5,1.3,4,3.7,4.1c0.8,0,1.7-0.2,2.2-0.4
				L121.1,16.7z"/>
			<path id="XMLID_155_" class="st3" d="M138.1,10.8c0,4.1-2.3,6.5-5.7,6.5c-3.4,0-5.4-2.8-5.4-6.3c0-3.7,2.2-6.5,5.6-6.5
				C136.2,4.5,138.1,7.4,138.1,10.8z M129.7,10.9c0,2.4,1,4.1,2.8,4.1c1.8,0,2.8-1.8,2.8-4.2c0-2.2-1-4.1-2.8-4.1
				C130.8,6.7,129.8,8.5,129.7,10.9z"/>
			<path id="XMLID_152_" class="st3" d="M143.7,4.9c0.8-0.1,2.1-0.2,3.5-0.2c1.7,0,2.9,0.3,3.7,1c0.7,0.6,1.1,1.5,1,2.6
				c0,1.6-1.1,2.7-2,3l0,0.1c0.8,0.4,1.2,1.2,1.5,2.3c0.4,1.4,0.7,3,0.9,3.5l-2.7,0c-0.2-0.3-0.5-1.4-0.8-2.9c-0.3-1.5-0.8-2-1.9-2
				l-0.8,0l0,4.9l-2.6,0L143.7,4.9z M146.3,10.3l1,0c1.3,0,2.1-0.7,2.1-1.8c0-1.1-0.7-1.7-1.9-1.7c-0.6,0-1,0.1-1.2,0.1L146.3,10.3z
				"/>
			<path id="XMLID_150_" class="st3" d="M158.1,17.2l0-12.4l3,0l2.4,4.5c0.7,1.3,1.4,2.9,1.9,4.2l0.1,0c-0.2-1.6-0.2-3.3-0.2-5.2
				l0-3.6l2.4,0l0,12.4l-2.7,0l-2.4-4.8c-0.7-1.3-1.4-2.9-2-4.4l-0.1,0c0.1,1.6,0.1,3.4,0.1,5.4l0,3.7L158.1,17.2z"/>
			<path id="XMLID_148_" class="st3" d="M174.3,14.4c0.7,0.4,1.8,0.8,2.9,0.8c1.2,0,1.8-0.5,1.8-1.3c0-0.8-0.5-1.2-1.9-1.8
				c-1.9-0.7-3.1-1.9-3.1-3.7c0-2.1,1.7-3.7,4.4-3.7c1.3,0,2.3,0.3,2.9,0.6l-0.6,2.3c-0.5-0.2-1.3-0.6-2.4-0.6
				c-1.1,0-1.7,0.5-1.7,1.2c0,0.8,0.6,1.1,2.1,1.8c2,0.8,3,2,3,3.7c0,2.1-1.5,3.8-4.7,3.8c-1.3,0-2.6-0.4-3.3-0.8L174.3,14.4z"/>
			<path id="XMLID_145_" class="st3" d="M190.5,14.2l-0.8,3.2l-2.7,0L190.5,5l3.4,0l3.5,12.4l-2.8,0l-0.9-3.2L190.5,14.2z
				 M193.4,12.1l-0.7-2.6c-0.2-0.7-0.4-1.7-0.6-2.4l0,0c-0.2,0.7-0.3,1.7-0.5,2.4l-0.7,2.6L193.4,12.1z"/>
			<path id="XMLID_142_" class="st3" d="M203.4,5.2c0.8-0.1,2.1-0.2,3.5-0.2c1.7,0,2.9,0.3,3.7,1c0.7,0.6,1.1,1.5,1,2.6
				c0,1.6-1.1,2.7-2,3l0,0.1c0.8,0.4,1.2,1.2,1.5,2.3c0.4,1.4,0.7,3,0.9,3.5l-2.7,0c-0.2-0.3-0.5-1.4-0.8-2.9c-0.3-1.5-0.8-2-1.9-2
				l-0.8,0l0,4.9l-2.6,0L203.4,5.2z M205.9,10.5l1,0c1.3,0,2.1-0.7,2.1-1.8c0-1.1-0.7-1.7-1.9-1.7c-0.6,0-1,0.1-1.2,0.1L205.9,10.5z
				"/>
		</g>
	</g>
	<g>
		<path class="st4" d="M23.1,45.9c-0.6-0.9-1.6-1.4-2.6-1.4c-0.7,0-1.3,0.2-1.8,0.6c-0.5,0.3-0.8,0.8-1.1,1.3
			c-0.7,0.1-1.4,0.2-2.1,0.2c0,0,0,0,0,0c-3.4,0-6.7-1.7-8.7-4.5c-2-2.8-2.5-6.3-1.4-9.4c0.3-0.7-0.1-1.5-0.7-1.9c0,0,0,0,0,0
			c-0.9-0.5-2-0.1-2.3,0.9C0.9,35.7,1.5,40.3,4.1,44c2.6,3.7,6.8,5.9,11.3,5.9h0c0.8,0,1.7-0.1,2.5-0.2c0.6,0.8,1.5,1.2,2.5,1.2
			c0.7,0,1.3-0.2,1.8-0.6c0.7-0.5,1.2-1.2,1.3-2.1C23.7,47.4,23.6,46.6,23.1,45.9z"/>
		<path class="st5" d="M29.9,54.5c-1.6,0-3.2-0.3-4.7-1c-1-0.4-1.3-1.7-0.5-2.6c0,0,0,0,0,0c0.5-0.5,1.2-0.7,1.8-0.4
			c1.1,0.4,2.2,0.7,3.4,0.7c1.8,0,3.5-0.5,5-1.6c1.1-0.8,1.9-1.7,2.6-2.9l0.1-0.2l-0.1-0.1C36.6,45,36.8,43,38.2,42
			c0.5-0.4,1.2-0.6,1.9-0.6c1,0,2,0.5,2.6,1.4c0.5,0.7,0.7,1.5,0.5,2.4c-0.1,0.8-0.6,1.6-1.3,2.1c-0.3,0.2-0.7,0.4-1.1,0.5l-0.2,0
			l-0.1,0.2c-0.9,1.8-2.2,3.3-3.8,4.4C34.7,53.7,32.3,54.5,29.9,54.5C29.9,54.5,29.9,54.5,29.9,54.5z"/>
		<path class="st3" d="M45.3,43.6c0-0.1,0-0.1,0-0.2c-0.1-0.6,0.1-1.3,0.7-1.6c0.2-0.1,0.5-0.3,0.7-0.4c3.5-2.4,4.7-7,2.9-10.8
			l-0.1-0.2l-0.1,0c-0.8-0.1-1.5-0.5-2-1.1c-1.3-1.4-1-3.6,0.6-4.7c0.5-0.4,1.2-0.6,1.8-0.6c1,0,2,0.5,2.6,1.4
			c0.7,1,0.8,2.4,0.1,3.4L52.4,29l0,0c2.2,4.7,1.3,10.3-2.5,13.9c-0.8,0.7-1.6,1.3-2.4,1.8C46.6,45.2,45.5,44.6,45.3,43.6z"/>
		<path class="st6" d="M52,22.2C52,22.2,52,22.2,52,22.2c-0.8-0.3-1.2-1.1-1-1.8c0.5-2.8-0.1-5.6-1.7-8c-2-2.8-5.2-4.5-8.7-4.5
			c-1.1,0-2.2,0.2-3.3,0.5l-0.2,0.1l0,0.1c-0.2,0.5-0.5,1-0.9,1.4c-0.6,0.5-1.3,0.8-2.1,0.8c-1.3,0-2.6-0.8-3-2.1
			c-0.5-1.3,0-2.8,1.2-3.6c0.7-0.5,1.6-0.7,2.5-0.5c0.6,0.1,1.1,0.4,1.5,0.8l0.1,0.1l0.2-0.1c1.3-0.4,2.7-0.6,4-0.6
			c4.5,0,8.7,2.2,11.3,5.9c2.2,3.1,3,6.9,2.3,10.5C54,22,52.9,22.6,52,22.2z"/>
		<path class="st9" d="M29.5,4c-0.2-0.4-0.5-0.8-0.9-0.9c-2.1-0.8-4.2-1.2-6.4-1.2c-7.2,0-11.7,4.4-11.7,4.4
			C5.6,10.7,3.6,17.6,5.2,24l0,0.2l-0.1,0.1c-0.9,0.9-1.2,2.1-0.9,3.2c0.4,1.4,1.7,2.4,3.1,2.4c0.7,0,1.3-0.2,1.9-0.6
			c0.7-0.5,1.2-1.2,1.3-2.1s0-1.7-0.5-2.4c-0.3-0.5-0.8-0.9-1.3-1.1l-0.1-0.1l0-0.2c-1.6-5.8,0.6-12,5.5-15.5l0.1-0.1
			c2.4-1.6,5.2-2.5,8.1-2.5c1.8,0,3.5,0.3,5.1,0.9c0.8,0.3,1.6,0,2-0.8l0,0C29.6,5,29.7,4.5,29.5,4z"/>
	</g>
</g>
</svg>
