<?xml version="1.0" encoding="utf-8"?>
<!-- Generator: Adobe Illustrator 22.1.0, SVG Export Plug-In . SVG Version: 6.00 Build 0)  -->
<svg version="1.1" xmlns="http://www.w3.org/2000/svg" xmlns:xlink="http://www.w3.org/1999/xlink" x="0px" y="0px"
	 viewBox="0 0 432 56" style="enable-background:new 0 0 432 56;" xml:space="preserve">
<style type="text/css">
	.st0{display:none;}
	.st1{display:inline;}
	.st2{fill:#FFFFFF;}
	.st3{opacity:0.5;}
	.st4{fill:#1E1E1E;}
	.st5{fill:#2A93D0;}
	.st6{fill:#37AF1E;}
	.st7{opacity:0.4;}
	.st8{fill:#EF4E24;}
	.st9{fill:#939598;}
	.st10{fill:none;}
	.st11{opacity:0.8;fill:#FFFFFF;}
	.st12{opacity:0.2;}
	.st13{opacity:0.3;}
	.st14{opacity:0.7;}
</style>
<g id="레이어_2" class="st0">
</g>
<g id="레이어_1">
	<g>
		<path class="st5" d="M23.1,46.3c-0.6-0.9-1.6-1.4-2.7-1.4c-0.7,0-1.3,0.2-1.9,0.6c-0.5,0.3-0.8,0.8-1.1,1.3
			c-0.7,0.1-1.4,0.2-2.1,0.2c-3.4,0-6.6-1.7-8.6-4.5c-1.9-2.8-2.4-6.2-1.4-9.4c0.3-0.8-0.1-1.6-0.8-2l0,0c-0.4-0.3-0.9-0.3-1.4-0.1
			c-0.5,0.2-0.9,0.6-1,1.1C0.8,36.2,1.5,40.8,4,44.5c2.6,3.7,6.9,5.9,11.4,5.9c0.8,0,1.6-0.1,2.5-0.2c0.6,0.8,1.5,1.2,2.5,1.2
			c0.7,0,1.3-0.2,1.9-0.6c0.7-0.5,1.2-1.2,1.3-2.1C23.8,47.9,23.6,47,23.1,46.3z"/>
		<path class="st6" d="M42.8,43.1c-0.6-0.9-1.6-1.4-2.7-1.4c-0.7,0-1.4,0.2-1.9,0.6c-1.4,1-1.7,3-0.7,4.5l0,0.1l-0.1,0.2
			c-0.6,1.1-1.5,2.1-2.6,2.8c-1.5,1-3.2,1.6-4.9,1.6c-1.2,0-2.3-0.2-3.4-0.7c-0.7-0.3-1.4-0.1-1.9,0.4c0,0,0,0,0,0
			c-0.4,0.4-0.5,1-0.4,1.5c0.1,0.5,0.5,0.9,1,1.2c1.5,0.6,3.1,1,4.7,1h0c2.5,0,4.9-0.8,6.9-2.2c1.6-1.1,3-2.7,3.8-4.4l0.1-0.1l0.2,0
			c0.4-0.1,0.8-0.3,1.1-0.5c0.7-0.5,1.2-1.2,1.3-2.1C43.4,44.7,43.3,43.8,42.8,43.1z"/>
		<path d="M52.5,29.4l0.1-0.2c0.6-1.1,0.6-2.5-0.1-3.5c-0.6-0.9-1.6-1.4-2.7-1.4c-0.7,0-1.3,0.2-1.9,0.6c-0.8,0.5-1.3,1.4-1.4,2.3
			c-0.1,0.9,0.2,1.8,0.8,2.5c0.5,0.6,1.2,0.9,2,1.1l0.1,0l0.1,0.2c1.7,3.8,0.5,8.3-2.9,10.7c-0.2,0.1-0.4,0.3-0.7,0.4
			c-0.6,0.3-0.9,1-0.7,1.7c0,0.1,0,0.1,0,0.2c0.1,0.5,0.4,0.9,0.8,1.2c0.2,0.1,0.5,0.2,0.7,0.2c0.3,0,0.5-0.1,0.8-0.2
			c0.9-0.5,1.7-1.1,2.5-1.8C53.7,39.8,54.7,34.2,52.5,29.4z"/>
		<path class="st9" d="M51.9,10.9c-2.6-3.7-6.9-6-11.4-6c-1.4,0-2.7,0.2-4.1,0.6l-0.2,0.1l-0.1-0.1c-0.5-0.4-1-0.7-1.6-0.8
			c-0.9-0.2-1.8,0-2.5,0.5c-1.2,0.8-1.7,2.4-1.2,3.7c0.5,1.3,1.7,2.2,3.1,2.2c0.8,0,1.5-0.3,2.1-0.8c0.4-0.3,0.7-0.8,0.9-1.4l0-0.1
			l0.2-0.1c1.1-0.3,2.1-0.5,3.3-0.5c3.4,0,6.6,1.7,8.6,4.5c1.6,2.3,2.2,5.1,1.7,7.9c-0.1,0.8,0.3,1.6,1,1.9l0,0v0
			c0.2,0.1,0.4,0.1,0.6,0.1c0.3,0,0.5-0.1,0.8-0.2c0.5-0.2,0.8-0.7,0.9-1.2C54.9,17.8,54.1,14,51.9,10.9z"/>
	</g>
	<path class="st8" d="M29.5,4c-0.2-0.4-0.5-0.8-0.9-0.9c-2.1-0.8-4.2-1.2-6.4-1.2c-7.2,0-11.7,4.4-11.7,4.4
		C5.6,10.7,3.6,17.6,5.2,24l0,0.2l-0.1,0.1c-0.9,0.9-1.2,2.1-0.9,3.2c0.4,1.4,1.7,2.4,3.1,2.4c0.7,0,1.3-0.2,1.9-0.6
		c0.7-0.5,1.2-1.2,1.3-2.1s0-1.7-0.5-2.4c-0.3-0.5-0.8-0.9-1.3-1.1l-0.1-0.1l0-0.2c-1.6-5.8,0.6-12,5.5-15.5l0.1-0.1
		c2.4-1.6,5.2-2.5,8.1-2.5c1.8,0,3.5,0.3,5.1,0.9c0.8,0.3,1.6,0,2-0.8l0,0C29.6,5,29.7,4.5,29.5,4z"/>
	<path class="st14" d="M267.9,30.8c0,0,0.4-0.3,0.7-0.5c3.1-2.4,3.8-5.5,2.9-8.9c-0.9-3.4-3.5-4.9-6.7-5.5
		c-3.2-0.6-10.9-0.2-10.9-0.2l0,26.5h1.5l1.6,0h1.5L258.5,32c0,0,0.5,0.1,1.9,0c0.9-0.1,3.3-0.1,3.3-0.1l5.3,10.1h5.1L267.9,30.8z
		 M258.3,24v-4c0,0,2.7-0.3,4.8,0c2.8,0.4,4,1.6,4,4.1c0,2.3-1.4,3.7-4.1,4c-2.3,0.3-4.7,0-4.7,0V24z"/>
	<path class="st14" d="M112.2,23.5c-0.3,0.1-1,0.3-1,0.3l-0.6-0.6h-2.7c0,0,0,18.6,0.1,27.4c1.5,0,3,0,4.5,0c0-2.8,0-5.7,0-8.6
		c6.8,1.7,11.7-1.5,12.6-7.9C126.3,26,119.8,20.6,112.2,23.5z M120.2,34.8c-0.8,2.9-3,4.2-5.6,3.7c-0.8-0.3-1.6-0.6-2.2-1.2l0-9.1
		c1.1-1.5,2.4-1.6,4.3-1.4C119.6,27.4,121.2,31.1,120.2,34.8z"/>
	<path class="st14" d="M239.7,15.5H238h-2.2l-9.3,25.1l-0.5,1.2l4.6-0.1l2.4-6.6l9.7-0.2l2.7,7.1l4.5-0.3L239.7,15.5z M240.1,31.3
		h-4.7h-0.9c0,0,2.2-5.8,3.3-8.6c1.1,2.8,3.4,8.7,3.4,8.7L240.1,31.3z"/>
	<path class="st14" d="M77,16.1c-3-0.5-9-0.3-9-0.3h-1.7c0,0,0,9.3,0,13.2c0,4,0,13.3,0,13.3h1.4h1.8h1.4l0-9.4h1.3
		c0,0,3.9-0.1,5.9-0.6c3.3-0.8,6.1-3.7,6.1-8C84.1,20.3,81.2,16.8,77,16.1z M76.4,28.5c-1.5,0.6-4.7,0.4-4.7,0.4h-0.8l0-8.9h0l1-0.1
		c4.5-0.4,6.8,0.6,7.4,3.3C79.9,25.6,78.8,27.6,76.4,28.5z"/>
	<path class="st14" d="M220.2,29c-1.5-0.9-3.1-1.5-4.6-2.3c-1.3-0.7-2.8-1.2-3.8-2.4c-1.5-1.7-1-3.7,1.1-4.5c2.6-1,5.9,0,8,1.1
		l1.5-3.8c-1.9-0.9-5.1-1.9-6.7-1.9c-1.8,0-3.1,0.1-4.3,0.5c-4.3,1.4-6.4,5.6-4.6,9.6c1,2.3,2.9,3.3,5,4.4c2,1,4.2,1.7,6,3.1
		c1,0.8,1.8,1.7,1.5,3.1c-0.3,1.5-1.5,2.1-2.8,2.4c-2.6,0.6-5.2,0-7.6-1c-0.3-0.1-1-0.4-1-0.4l-1.1,3.1l-0.2,0.7
		c5.4,2.3,8.1,2.4,11.5,1.5c2.9-0.7,5.1-2.3,5.8-5.5C224.5,33.4,223.4,31,220.2,29z"/>
	<path class="st14" d="M157.6,22.6c-5.8,0-9.6,4-9.6,10c0,6.1,3.7,10.1,9.5,10.1c5.9,0,9.7-3.9,9.7-10.1
		C167.1,26.5,163.4,22.6,157.6,22.6z M156.2,38.4c-2.5-0.7-4-3.8-3.4-7.1c0.6-3,2.6-4.8,5.4-4.5c2.6,0.2,4.3,2.5,4.3,5.8
		C162.5,36.7,159.6,39.4,156.2,38.4z"/>
	<path class="st14" d="M192.4,23.2c-0.7,0.3-1.3,0.6-2,1c-0.4,0.2-1.1,0.6-1.1,0.6l-0.8-1.5l-3.2,0l-0.1,19.1l4.7,0l-0.1-13.2
		c0,0,0.9-0.7,2.6-1.6c3.4-1.8,5.1-0.8,5.2,2.9c0,3.5,0,11.9,0,11.9h1.3h2.1h1.2c0,0,0-9-0.1-12.8C201.9,23.5,197.9,21,192.4,23.2z"
		/>
	<path class="st14" d="M142,27.3c0.3,0.1,1.3,0.5,1.6,0.7l1.8-3.4c-2.3-1.4-4.8-1.9-6.7-1.9c-6.7-0.2-11.3,6-9.3,13.3
		c2.1,7.9,11.1,8.2,16,4.7l-1.4-3.4c-5,2.3-8.1,1.6-9.8-1.9c-1-2.1-0.9-5.3,1.1-7.2C137.1,26.2,139.3,26.4,142,27.3z"/>
	<path class="st14" d="M178.1,23.5c-2.2,0.8-3.2,1.5-3.2,1.5l-1-1.8h-2.9L171,42.3l4.6,0V30c0.6-1,2.2-2.3,3.5-2.8
		c0.7-0.3,2.1-0.4,3.2-0.4l-1.1-3.9C181.2,23,179.2,23.1,178.1,23.5z"/>
	<path class="st14" d="M95.3,22.6c-5.8,0-9.6,4-9.6,10c0,6.1,3.7,10.1,9.5,10.1c5.9,0,9.7-3.9,9.7-10.1
		C104.9,26.5,101.1,22.6,95.3,22.6z M94,38.4c-2.5-0.7-4-3.8-3.4-7.1c0.6-3,2.6-4.8,5.4-4.5c2.6,0.2,4.3,2.5,4.3,5.8
		C100.2,36.7,97.3,39.4,94,38.4z"/>
	<g>
		<path d="M323.6,14.6H306c-1.4,0-2.6,1.2-2.6,2.6s1.2,2.6,2.6,2.6h5.9V40c0,1.6,1.3,2.9,2.9,2.9c1.6,0,2.9-1.3,2.9-2.9V19.8h5.9
			c1.4,0,2.6-1.2,2.6-2.6S325.1,14.6,323.6,14.6z"/>
		<path d="M394.4,14.6c-1.6,0-2.9,1.3-2.9,2.9V40c0,1.6,1.3,2.9,2.9,2.9c1.6,0,2.9-1.3,2.9-2.9V17.5C397.3,15.9,396,14.6,394.4,14.6
			z"/>
		<path d="M353,14.6c-1.6,0-2.9,1.2-2.9,2.7v14.4c0,3.5-2.9,6.3-6.6,6.3c-3.6,0-6.6-2.8-6.6-6.3V17.4c0-1.5-1.3-2.7-2.9-2.7
			c-1.6,0-2.9,1.2-2.9,2.7v14.2c0,6.5,5.5,11.8,12.3,11.8c6.8,0,12.3-5.3,12.3-11.8V17.4C355.9,15.9,354.6,14.6,353,14.6z"/>
		<path d="M372.3,14.6h-5.2c-3.2,0-5.7,2.6-5.7,5.7v16.7c0,3.2,2.6,5.7,5.7,5.7h5.2c8.2,0,14.1-6.2,14.1-14
			C386.4,20.9,380.5,14.6,372.3,14.6z M371.8,37.7h-4.7v-18h4.7c5.4,0,8.8,3.9,8.8,9.1S377.2,37.7,371.8,37.7z"/>
		<path d="M415.7,14c-7.1,0-13.3,6.6-13.3,14.7s6.2,14.7,13.3,14.7S429,36.9,429,28.7S422.8,14,415.7,14z M415.7,38.4
			c-4.5,0-7.6-4.4-7.6-9.7s3.1-9.7,7.6-9.7c4.5,0,7.6,4.4,7.6,9.7S420.2,38.4,415.7,38.4z"/>
		<path d="M289.6,25.1c-3.5-1.4-2.6-4.8,0-5.8c1.8-0.7,4.3-0.5,6.4,0.2c1,0.4,2.2,0.1,2.8-0.8l0.1-0.1c1-1.2,0.4-3-1.1-3.5
			c-1.4-0.5-3.3-1-5.3-1c-6.6,0-9.6,3.3-10.4,6.4c-0.9,3.3,0.7,6.9,4.5,8.7c2.4,1.1,5.6,1.9,7.3,2.8c3.7,1.9,2.1,6.7-3.1,6.7
			c-1.8,0-3.3-0.2-5.1-1c-1.2-0.5-2.6,0-3.2,1.2c-0.6,1.2,0.1,2.7,1.4,3.2c2.4,0.9,5.3,1.4,6.9,1.4c8.2,0,11.4-5.4,10.6-9.8
			C300.4,27.9,292.5,26.2,289.6,25.1z"/>
	</g>
</g>
</svg>
